<?xml version="1.0" standalone="no"?>
<!DOCTYPE svg PUBLIC "-//W3C//DTD SVG 20010904//EN"
 "http://www.w3.org/TR/2001/REC-SVG-20010904/DTD/svg10.dtd">
<svg version="1.0" xmlns="http://www.w3.org/2000/svg"
 width="1024.000000pt" height="1024.000000pt" viewBox="0 0 1024.000000 1024.000000"
 preserveAspectRatio="xMidYMid meet">

<g transform="translate(0.000000,1024.000000) scale(0.100000,-0.100000)"
fill="#000000" stroke="none">
<path d="M4938 8531 c-132 -6 -137 -7 -179 -37 -58 -42 -79 -84 -79 -159 l0
-60 -153 -37 c-297 -72 -591 -216 -856 -417 -263 -200 -530 -530 -686 -846
-72 -148 -116 -268 -169 -470 -21 -77 -39 -146 -41 -152 -3 -9 -24 -13 -61
-13 -71 0 -142 -36 -181 -93 l-28 -40 -9 -274 c-10 -308 -7 -330 52 -408 48
-64 87 -85 168 -93 l67 -7 27 -110 c98 -396 336 -822 630 -1129 96 -100 316
-269 474 -364 221 -134 524 -251 714 -277 l52 -7 0 -39 c0 -75 40 -133 110
-163 48 -20 396 -30 647 -18 185 8 192 9 226 35 43 33 67 82 67 141 0 39 3 46
23 50 212 38 368 89 582 192 405 194 761 528 1020 958 93 154 179 368 236 583
16 62 29 114 29 116 0 3 34 7 76 11 91 8 137 29 188 87 73 80 75 89 75 409 1
268 -1 287 -20 327 -41 84 -133 133 -251 133 -55 0 -58 1 -64 28 -93 394 -234
705 -454 997 -253 336 -549 568 -941 738 -149 65 -322 122 -418 139 l-68 12
-6 63 c-10 99 -58 168 -134 191 -42 12 -395 14 -665 3z m584 -161 c20 -6 39
-18 42 -28 3 -9 6 -147 8 -307 2 -229 0 -297 -11 -323 -14 -33 -41 -47 -80
-40 -21 3 -21 5 -23 318 -1 390 -1 390 15 390 6 0 29 -5 49 -10z m-554 -349
l2 -344 -41 6 c-23 3 -51 15 -63 27 -20 20 -21 30 -22 322 -1 283 0 302 18
320 14 14 30 18 61 16 l42 -3 3 -344z m338 114 c7 -126 12 -251 13 -277 l1
-48 -89 0 c-49 0 -97 3 -105 6 -14 6 -16 33 -11 243 3 130 5 253 5 274 l0 38
88 -3 87 -3 11 -230z m-634 -142 l-4 -71 -51 -13 c-63 -14 -257 -85 -350 -127
-117 -54 -294 -166 -412 -263 -108 -88 -316 -305 -372 -389 -47 -70 -72 -112
-170 -285 -45 -79 -83 -172 -147 -355 -32 -94 -47 -125 -59 -124 -10 0 -37 1
-62 2 -43 2 -45 3 -45 33 0 70 93 356 158 484 145 285 298 490 497 664 307
271 592 428 920 506 50 12 92 19 95 16 3 -3 4 -38 2 -78z m1158 62 c100 -24
247 -74 330 -114 137 -66 334 -181 425 -249 120 -89 287 -251 400 -389 192
-236 369 -596 420 -855 l13 -68 -69 0 -68 0 -20 63 c-76 245 -158 423 -273
597 -170 257 -325 422 -513 549 -215 145 -426 247 -637 306 l-98 28 0 73 c0
84 -5 81 90 59z m-548 -442 c3 -21 3 -208 0 -417 l-5 -379 -70 6 c-38 3 -72 9
-76 12 -3 4 -6 189 -6 411 l0 404 76 0 77 0 4 -37z m563 -259 c14 -15 25 -39
25 -55 0 -35 -45 -89 -74 -89 -62 0 -97 111 -47 151 32 26 68 24 96 -7z
m-1178 -6 c11 -13 23 -28 27 -35 11 -20 -21 -82 -49 -93 -70 -27 -134 64 -89
128 21 31 83 31 111 0z m-663 -175 c23 -27 161 -168 308 -315 148 -146 268
-269 268 -273 0 -4 -17 -28 -37 -53 -21 -26 -38 -49 -40 -51 -1 -2 -44 37 -95
87 -51 49 -114 110 -139 134 -139 130 -398 406 -404 429 -5 19 0 34 20 57 39
47 70 43 119 -15z m2515 21 c48 -61 49 -61 -291 -401 l-313 -312 -48 56 -49
57 279 275 c153 152 293 293 311 314 42 46 80 50 111 11z m-1079 -554 c145
-49 276 -144 373 -273 66 -86 97 -147 128 -247 20 -63 23 -96 23 -205 -1 -118
-4 -139 -32 -225 -53 -161 -133 -269 -283 -380 -137 -103 -261 -142 -444 -143
-145 -1 -212 15 -342 79 -215 106 -371 321 -403 554 -14 97 -6 241 16 328 60
230 292 456 538 523 100 27 330 21 426 -11z m1369 -36 c40 -33 44 -94 9 -118
-77 -55 -166 65 -92 123 34 27 46 26 83 -5z m-3080 -10 c29 -37 27 -78 -5
-103 -15 -12 -35 -21 -46 -21 -30 0 -68 45 -68 80 0 65 79 95 119 44z m-246
-384 c22 -18 55 -86 45 -94 -1 -2 -195 -1 -430 2 l-428 5 0 47 c0 26 3 50 7
53 3 4 180 7 393 7 373 0 388 -1 413 -20z m4281 -3 c20 -13 26 -26 26 -52 l0
-35 -402 -2 c-222 -1 -424 -3 -450 -4 l-47 -2 14 35 c8 20 15 37 15 39 0 3 15
14 33 25 31 20 42 20 409 17 333 -4 379 -6 402 -21z m-419 -223 c198 -1 377
-3 398 -3 l37 -1 0 -70 c0 -60 -3 -70 -17 -71 -65 -3 -839 -15 -841 -13 -2 1
-1 42 3 89 l8 87 26 -8 c14 -5 188 -9 386 -10z m-3874 -16 c0 -13 3 -54 8 -91
l7 -69 -25 7 c-14 3 -197 10 -406 14 -209 5 -381 9 -383 10 -2 0 -2 31 0 69
l3 67 390 5 c215 3 393 6 398 8 4 1 7 -8 8 -20z m820 -53 c-1 -38 -5 -73 -8
-77 -2 -5 -148 -8 -324 -8 l-319 0 0 80 0 81 328 -3 327 -3 -4 -70z m2479 -6
l0 -81 -272 3 c-150 2 -294 5 -320 7 l-48 4 0 69 0 69 258 3 c141 1 285 3 320
5 l62 2 0 -81z m170 -169 c0 -5 -2 -10 -4 -10 -3 0 -8 5 -11 10 -3 6 -1 10 4
10 6 0 11 -4 11 -10z m45 -36 c37 -18 69 -19 420 -20 l380 -2 0 -38 c0 -66
-10 -68 -397 -72 -186 -2 -359 -1 -385 3 -34 5 -56 16 -80 40 -34 34 -41 62
-23 96 12 21 28 20 85 -7z m-3466 -18 c17 -20 -9 -79 -45 -102 -23 -16 -57
-19 -263 -22 -223 -4 -495 8 -533 23 -18 7 -36 71 -23 83 4 4 178 7 388 7 261
0 392 4 412 12 41 15 51 15 64 -1z m3838 -302 c62 -8 63 11 -9 -209 -49 -149
-140 -354 -200 -450 -126 -201 -341 -440 -538 -597 -190 -151 -578 -332 -842
-392 l-28 -6 0 79 0 79 83 22 c262 70 544 219 763 403 249 209 476 533 599
858 76 199 86 219 104 219 9 0 40 -3 68 -6z m-4203 -36 c8 -18 31 -80 52 -138
118 -337 329 -641 619 -895 209 -184 485 -331 745 -398 l95 -24 3 -68 c4 -97
5 -96 -75 -78 -257 57 -608 232 -828 414 -77 63 -252 240 -332 334 -153 182
-361 579 -408 780 -7 33 -17 67 -20 77 -8 20 9 25 83 27 50 1 53 0 66 -31z
m1158 -373 c-152 -154 -292 -300 -310 -323 -38 -48 -78 -56 -112 -22 -46 46
-38 103 22 153 24 19 162 154 308 299 l265 264 52 -45 52 -46 -277 -280z
m1903 73 c165 -160 308 -306 318 -323 21 -39 11 -75 -28 -101 -36 -23 -74 -5
-124 60 -34 43 -219 224 -472 461 -35 33 -70 72 -78 87 -14 27 -13 29 30 67
24 22 46 40 49 41 3 0 141 -131 305 -292z m596 263 c33 -33 36 -56 13 -89 -35
-51 -85 -48 -117 8 -23 38 -21 57 8 85 32 33 60 31 96 -4z m-3106 -16 c31 -30
32 -62 3 -92 -43 -46 -118 -16 -118 47 0 64 70 91 115 45z m1514 -301 l61 -7
0 -404 0 -404 -77 3 -78 3 -3 408 c-3 393 -2 407 16 407 11 0 47 -3 81 -6z
m-551 -376 c28 -27 28 -57 1 -92 -41 -53 -129 -18 -129 51 0 13 11 35 26 49
29 30 64 27 102 -8z m1166 11 c35 -28 36 -80 1 -114 -31 -32 -58 -32 -84 1
-30 38 -28 87 5 113 15 12 32 21 39 21 7 0 24 -9 39 -21z m-879 -501 c2 -7 6
-152 9 -321 3 -228 1 -309 -7 -313 -7 -2 -32 -1 -57 4 l-45 8 -7 84 c-3 47 -8
173 -11 280 l-4 195 37 38 c37 37 77 48 85 25z m581 -19 l24 -22 0 -283 c0
-155 -3 -289 -6 -298 -4 -12 -20 -16 -55 -16 l-49 0 0 264 c0 144 -3 291 -7
326 l-6 63 38 -6 c21 -3 48 -16 61 -28z m-256 -79 c6 -8 10 -132 10 -276 l0
-262 -22 -5 c-13 -2 -50 -2 -83 2 l-60 6 -3 275 -2 276 75 -1 c56 0 79 -4 85
-15z"/>
<path d="M5125 6518 c-129 -12 -239 -63 -337 -156 -186 -177 -240 -422 -148
-674 38 -105 90 -179 170 -243 202 -164 476 -187 705 -60 90 50 200 177 250
288 29 64 55 188 55 259 0 54 -21 159 -42 213 -37 96 -143 220 -242 285 -116
75 -249 104 -411 88z m216 -188 c73 -23 176 -96 214 -152 62 -91 93 -229 75
-331 -18 -96 -71 -197 -133 -252 -142 -124 -322 -146 -497 -59 -262 131 -302
515 -75 711 109 95 274 128 416 83z"/>
<path d="M5155 6200 c-81 -17 -159 -76 -200 -152 -26 -47 -30 -63 -30 -133 1
-130 53 -219 157 -265 98 -43 194 -34 289 30 60 39 111 135 117 220 11 150
-96 278 -250 299 -29 4 -66 4 -83 1z m130 -204 c56 -60 52 -136 -10 -184 -71
-56 -185 14 -185 113 0 30 7 44 36 71 30 28 43 34 81 34 39 0 50 -5 78 -34z"/>
<path d="M7701 4445 c4 -133 4 -135 26 -135 21 0 23 5 23 50 l0 50 54 0 c40 0
55 4 60 16 14 36 8 40 -54 36 l-60 -4 0 30 c0 31 0 31 63 34 54 3 62 6 65 24
4 25 -27 34 -120 34 l-60 0 3 -135z"/>
<path d="M7411 4528 c-20 -27 -31 -54 -31 -75 0 -34 0 -34 -37 -28 l-38 6 43
-38 c23 -21 42 -46 42 -56 0 -9 5 -17 10 -17 6 0 10 11 10 25 0 21 5 25 30 25
24 0 30 -4 30 -21 0 -11 -4 -17 -10 -14 -5 3 -10 2 -10 -4 0 -15 36 -32 54
-25 8 3 16 20 18 36 3 27 9 34 46 47 54 20 53 31 -3 31 -52 0 -60 18 -20 44
24 16 35 56 15 56 -5 0 -12 11 -16 25 -3 14 -12 25 -20 25 -8 0 -14 -10 -14
-25 0 -22 -4 -25 -35 -25 -24 0 -35 5 -35 15 0 8 7 15 15 15 8 0 15 5 15 10 0
23 -31 7 -59 -32z m69 -78 c0 -20 -5 -30 -15 -30 -18 0 -30 24 -21 45 10 28
36 17 36 -15z"/>
<path d="M8265 4548 c-24 -19 -27 -26 -22 -66 3 -27 0 -54 -9 -70 -22 -44 19
-102 73 -102 86 0 131 64 82 116 l-21 23 21 27 c26 33 26 49 1 74 -27 27 -89
27 -125 -2z m95 -33 c15 -18 15 -19 -27 -33 -36 -12 -48 -3 -38 28 8 24 47 27
65 5z m-31 -105 c28 -14 33 -38 11 -50 -10 -5 -25 -7 -33 -4 -20 7 -29 46 -14
56 15 10 15 10 36 -2z"/>
<path d="M8555 4500 c-97 -114 -96 -134 3 -127 l52 4 0 -34 c0 -29 3 -33 26
-33 23 0 25 3 22 33 -3 29 0 32 25 35 36 4 34 37 -2 37 -31 0 -34 10 -23 89
l9 66 -27 0 c-20 0 -40 -16 -85 -70z m61 -67 c-5 -6 -79 -23 -83 -19 -1 1 16
24 40 49 l42 47 3 -36 c2 -20 1 -38 -2 -41z"/>
<path d="M8810 4543 c-57 -52 -59 -151 -4 -207 47 -46 122 -26 150 41 53 125
-56 247 -146 166z m89 -47 c7 -8 14 -30 18 -49 15 -96 -85 -116 -103 -21 -12
62 50 112 85 70z"/>
<path d="M8066 4542 c-3 -10 -29 -35 -56 -55 -54 -41 -77 -75 -66 -103 5 -13
17 -16 66 -12 52 4 60 2 60 -13 0 -33 12 -49 37 -49 l26 0 -7 78 c-13 155 -17
172 -36 172 -10 0 -21 -8 -24 -18z m34 -83 c0 -16 -42 -48 -62 -49 -29 0 -21
26 14 48 32 20 48 20 48 1z m17 -116 c-3 -10 -5 -4 -5 12 0 17 2 24 5 18 2 -7
2 -21 0 -30z"/>
<path d="M5164 2923 c8 -26 11 -301 3 -309 -3 -4 -14 -1 -23 6 -24 21 -168
209 -195 256 -21 38 -27 42 -74 48 -27 3 -60 6 -71 6 l-22 0 1 -315 1 -315 50
0 c28 0 61 -3 74 -6 l22 -6 0 173 0 173 31 -30 c17 -16 58 -67 91 -114 34 -47
81 -109 105 -137 43 -51 46 -53 97 -53 l52 0 2 238 c1 130 5 269 8 308 l6 72
-63 7 c-35 3 -72 9 -82 12 -15 4 -18 1 -13 -14z"/>
<path d="M7455 2928 c-42 -15 -125 -70 -157 -104 -49 -53 -73 -120 -73 -209 0
-130 56 -226 167 -286 58 -31 70 -34 148 -34 96 0 125 11 195 76 52 48 67 96
63 204 l-3 80 -105 12 c-58 6 -120 12 -137 12 l-33 1 0 -71 0 -71 58 4 57 3 3
-32 c3 -28 -2 -36 -30 -53 -47 -29 -95 -26 -152 10 -60 39 -80 81 -74 167 3
48 9 68 27 87 36 38 83 56 148 56 47 0 66 -5 97 -27 l39 -26 19 24 c11 13 30
36 44 51 13 14 24 30 24 35 0 11 -87 69 -132 88 -43 17 -148 19 -193 3z"/>
<path d="M2927 2923 c-4 -3 -7 -100 -7 -215 0 -175 -3 -213 -16 -233 -22 -34
-61 -32 -110 5 -21 16 -41 30 -44 30 -3 0 -11 -14 -19 -31 -7 -17 -31 -47 -51
-67 l-38 -35 27 -23 c90 -75 211 -93 289 -42 22 15 53 48 68 74 30 52 38 116
48 387 l5 157 -73 0 c-40 0 -76 -3 -79 -7z"/>
<path d="M3434 2910 c-68 -27 -133 -85 -168 -151 -26 -47 -29 -63 -29 -138 0
-102 20 -157 82 -224 89 -96 237 -131 341 -80 65 32 128 97 159 162 38 81 37
193 -2 272 -55 113 -140 170 -262 176 -53 2 -82 -2 -121 -17z m182 -146 c68
-32 100 -119 74 -198 -14 -44 -80 -102 -122 -108 -95 -14 -188 64 -188 157 0
52 22 97 66 133 32 26 47 32 87 32 27 0 64 -7 83 -16z"/>
<path d="M4032 2703 c3 -211 5 -231 25 -268 51 -95 136 -145 245 -145 96 0
177 46 226 129 26 44 27 54 30 196 1 83 3 187 5 233 l2 82 -80 0 -80 0 0 -216
0 -216 -28 -24 c-15 -13 -39 -27 -52 -30 -37 -9 -105 17 -129 49 -20 27 -20
39 -17 233 l3 204 -77 0 -77 0 4 -227z"/>
<path d="M5532 2783 c-1 -82 -5 -226 -8 -322 l-7 -174 84 6 c46 4 146 7 222 7
l137 0 0 75 0 74 -137 3 -138 3 2 238 3 237 -78 0 -77 0 -3 -147z"/>
<path d="M6127 2633 c2 -164 5 -307 8 -319 4 -19 11 -21 81 -20 l75 1 -5 29
c-3 16 -6 158 -6 317 l0 289 -78 0 -77 0 2 -297z"/>
<path d="M6495 2617 l0 -312 79 -3 78 -3 -6 173 -7 173 56 -60 c31 -33 94
-111 141 -172 l84 -113 65 0 65 0 -1 315 0 315 -74 0 -75 0 -1 -147 c-1 -82
-4 -159 -8 -172 -6 -23 -9 -21 -57 40 -28 35 -76 98 -105 140 -101 141 -99
139 -171 139 l-63 0 0 -313z"/>
<path d="M2457 2794 c-2 -5 -8 -24 -12 -41 -6 -28 -9 -31 -25 -23 -31 16 -40
12 -40 -20 0 -23 6 -33 25 -40 35 -13 36 -60 1 -60 -40 0 -56 -11 -56 -36 0
-21 5 -24 36 -24 l37 0 -6 -40 c-6 -44 -5 -45 24 -30 12 7 19 21 19 41 0 26 3
30 23 27 17 -2 23 -11 25 -35 5 -48 39 -46 48 2 6 34 7 35 56 35 41 0 49 3 46
17 -2 12 -18 20 -47 26 -38 8 -42 11 -37 30 3 12 6 28 6 35 0 7 5 10 10 7 6
-4 24 -3 41 0 24 5 29 11 27 28 -2 18 -9 22 -36 19 -32 -2 -32 -2 -32 43 0 43
-1 45 -30 45 -28 0 -29 -2 -27 -37 2 -35 0 -38 -25 -41 -25 -3 -28 0 -28 25 0
31 -14 60 -23 47z m54 -134 c16 0 20 -6 17 -27 -3 -24 -7 -28 -35 -28 -31 0
-33 2 -33 34 0 26 3 32 16 27 9 -3 25 -6 35 -6z"/>
</g>
</svg>
